# File created by Blade
# Date/Time:  Tue Jan 27 18:02:00 2015
#---------------------------------------------------------
:version 1.10
:name HOM
:units
  mass 1.0
  length 1.000000
  angle deg
:documentation
     Acclaim Skeleton File
:root
   axis xyz
   order TX TY TZ RX RY RZ
   position 0.000000 0.000000 0.000000
   orientation 0 0 0
:bonedata
   begin
      id 1
      name Spine_dum
      direction 0.000000 1.000000 0.000000
      length 5.195262
      axis 0.0 0.0 0.0 xyz
   end
   begin
      id 2
      name LeftUpLeg_dum
      direction 1.000000 0.000000 0.000000
      length 3.351363
      axis 0.0 0.0 0.0 xyz
   end
   begin
      id 3
      name RightUpLeg_dum
      direction -1.000000 0.000000 0.000000
      length 3.351363
      axis 0.0 0.0 0.0 xyz
   end
   begin
      id 4
      name Spine
      direction 0.000000 1.000000 0.000000
      length 0.000000
      axis 0.0 0.0 0.0 xyz
      dof rx ry rz
   end
   begin
      id 5
      name Spine_dum1
      direction 0.000000 1.000000 0.000000
      length 15.653875
      axis 0.0 0.0 0.0 xyz
   end
   begin
      id 6
      name Spine_dum2
      direction 0.000000 1.000000 0.000000
      length 10.329768
      axis 0.0 0.0 0.0 xyz
   end
   begin
      id 7
      name Spine_dum3
      direction 0.000000 1.000000 0.000000
      length 10.329768
      axis 0.0 0.0 0.0 xyz
   end
   begin
      id 8
      name Head
      direction 0.000000 1.000000 0.000000
      length 4.527550
      axis 0.0 0.0 0.0 xyz
      dof rx ry rz
   end
   begin
      id 9
      name LeftShoulder
      direction 1.000000 0.000000 0.000000
      length 6.996006
      axis 0.0 0.0 -90.0 xyz
      dof rx ry rz
   end
   begin
      id 10
      name LeftArm
      direction 1.000000 0.000000 0.000000
      length 10.209302
      axis 0.0 0.0 -90.0 xyz
      dof rx ry rz
   end
   begin
      id 11
      name LeftForeArm
      direction 1.000000 0.000000 0.000000
      length 8.563163
      axis 0.0 0.0 -90.0 xyz
      dof ry rz rx
   end
   begin
      id 12
      name LeftHand
      direction 0.000000 0.000000 0.000000
      length 0.000000
      axis 0.0 0.0 -90.0 xyz
      dof rx ry rz
   end
   begin
      id 13
      name LeftHand_dum1
      direction 0.000000 0.000000 0.000000
      length 0.000000
      axis 0.0 0.0 -90.0 xyz
   end
   begin
      id 14
      name LeftHand_dum2
      direction 1.000000 0.000000 0.000000
      length 3.937000
      axis 0.0 0.0 -90.0 xyz
   end
   begin
      id 15
      name LeftHandThumb1
      direction 0.000000 0.000000 1.000000
      length 3.937000
      axis 0.0 0.0 -90.0 xyz
      dof rx rz ry
   end
   begin
      id 16
      name RightShoulder
      direction -1.000000 0.000000 0.000000
      length 6.996006
      axis 0.0 0.0 90.0 xyz
      dof rx ry rz
   end
   begin
      id 17
      name RightArm
      direction -1.000000 0.000000 0.000000
      length 10.209302
      axis 0.0 0.0 90.0 xyz
      dof rx ry rz
   end
   begin
      id 18
      name RightForeArm
      direction -1.000000 0.000000 0.000000
      length 8.563163
      axis 0.0 0.0 90.0 xyz
      dof ry rz rx
   end
   begin
      id 19
      name RightHand
      direction 0.000000 0.000000 0.000000
      length 0.000000
      axis 0.0 0.0 90.0 xyz
      dof rx ry rz
   end
   begin
      id 20
      name RightHand_dum1
      direction 0.000000 0.000000 0.000000
      length 0.000000
      axis 0.0 0.0 90.0 xyz
   end
   begin
      id 21
      name RightHand_dum2
      direction -1.000000 0.000000 0.000000
      length 3.937000
      axis 0.0 0.0 90.0 xyz
   end
   begin
      id 22
      name RightHandThumb1
      direction 0.000000 0.000000 1.000000
      length 3.937000
      axis 0.0 0.0 90.0 xyz
      dof rx rz ry
   end
   begin
      id 23
      name LeftUpLeg
      direction 0.000000 -1.000000 0.000000
      length 16.346831
      axis 0.0 0.0 0.0 xyz
      dof rx ry rz
   end
   begin
      id 24
      name LeftLeg
      direction 0.000000 -1.000000 0.000000
      length 13.959795
      axis 0.0 0.0 0.0 xyz
      dof rx ry rz
   end
   begin
      id 25
      name LeftFoot
      direction 0.000000 -0.258819 0.965926
      length 5.165550
      axis 15.0 0.0 0.0 xyz
      dof rx ry rz
   end
   begin
      id 26
      name LeftToeBase
      direction 0.000000 0.000000 1.000000
      length 2.952750
      axis 0.0 0.0 0.0 xyz
      dof rx ry rz
   end
   begin
      id 27
      name RightUpLeg
      direction 0.000000 -1.000000 0.000000
      length 16.346831
      axis 0.0 0.0 0.0 xyz
      dof rx ry rz
   end
   begin
      id 28
      name RightLeg
      direction 0.000000 -1.000000 0.000000
      length 13.959795
      axis 0.0 0.0 0.0 xyz
      dof rx ry rz
   end
   begin
      id 29
      name RightFoot
      direction 0.000000 -0.258819 0.965926
      length 5.165550
      axis 15.0 0.0 0.0 xyz
      dof rx ry rz
   end
   begin
      id 30
      name RightToeBase
      direction 0.000000 0.000000 1.000000
      length 2.952750
      axis 0.0 0.0 0.0 xyz
      dof rx ry rz
   end
:hierarchy
   begin
      root Spine_dum LeftUpLeg_dum RightUpLeg_dum
      Spine_dum Spine
      LeftUpLeg_dum LeftUpLeg
      RightUpLeg_dum RightUpLeg
      Spine Spine_dum1 Spine_dum2 Spine_dum3
      Spine_dum1 Head
      Spine_dum2 LeftShoulder
      Spine_dum3 RightShoulder
      LeftShoulder LeftArm
      LeftArm LeftForeArm
      LeftForeArm LeftHand
      LeftHand LeftHand_dum1 LeftHand_dum2
      LeftHand_dum1 LeftHandThumb1
      RightShoulder RightArm
      RightArm RightForeArm
      RightForeArm RightHand
      RightHand RightHand_dum1 RightHand_dum2
      RightHand_dum1 RightHandThumb1
      LeftUpLeg LeftLeg
      LeftLeg LeftFoot
      LeftFoot LeftToeBase
      RightUpLeg RightLeg
      RightLeg RightFoot
      RightFoot RightToeBase
   end

# File created by Blade
# Date/Time:  Tue Jan 27 18:01:49 2015
# Frame Rate: 120.000 fps
#------------------------------------------------------
:FULLY-SPECIFIED
:DEGREES
642
root -1.157638 31.951694 -5.846258 7.485301 26.520707 5.767306
Spine -8.467231 -2.742934 -2.890868
Head 11.584996 -8.367410 -4.004506
LeftShoulder -11.791950 14.618476 6.613497
LeftArm 22.204768 39.300870 -74.998039
LeftForeArm -0.965823 -0.000000 15.491430
LeftHand -11.385366 -0.000000 -6.047119
LeftHandThumb1 -26.253704 0.000000 33.147579
RightShoulder -18.428684 42.417785 -59.872866
RightArm 97.201528 40.158261 126.372515
RightForeArm 45.807583 0.000000 116.238053
RightHand 2.366130 -0.000000 20.365541
RightHandThumb1 -24.326973 -0.000000 -32.862282
LeftUpLeg -2.383575 -12.080894 -1.287658
LeftLeg -0.106380 -0.000000 0.000000
LeftFoot -11.771791 9.842394 -23.052529
LeftToeBase 8.286887 -0.000000 -0.000000
RightUpLeg 5.810458 -14.746938 -4.242600
RightLeg -4.261338 -0.000000 0.000000
RightFoot -17.858245 -21.379300 12.876535
RightToeBase 5.259212 -0.000000 -0.000000
643
root -1.151822 31.950948 -5.844934 7.484100 26.501183 5.785145
Spine -8.480860 -2.722974 -2.882083
Head 11.630212 -8.072791 -4.246083
LeftShoulder -11.800409 14.709363 6.596185
LeftArm 22.328205 39.304028 -74.938698
LeftForeArm -0.983149 -0.000000 15.429947
LeftHand -11.310562 -0.000000 -6.124635
LeftHandThumb1 -26.253704 0.000000 33.147579
RightShoulder -18.489663 42.343739 -59.895893
RightArm 96.970168 40.198272 125.793554
RightForeArm 45.525867 0.000000 113.933153
RightHand 2.078327 -0.000000 20.511176
RightHandThumb1 -24.326973 -0.000000 -32.862282
LeftUpLeg -2.368672 -12.071733 -1.318528
LeftLeg -0.096121 -0.000000 0.000000
LeftFoot -11.782769 9.852223 -23.043690
LeftToeBase 8.258777 -0.000000 -0.000000
RightUpLeg 5.825901 -14.737983 -4.274079
RightLeg -4.263187 -0.000000 0.000000
RightFoot -17.860158 -21.377652 12.863342
RightToeBase 5.246548 -0.000000 -0.000000
644
root -1.149033 31.950439 -5.842819 7.474212 26.493423 5.800723
Spine -8.489036 -2.721392 -2.894735
Head 11.585494 -8.133670 -4.498144
LeftShoulder -11.800249 14.734014 6.619208
LeftArm 22.376273 39.322592 -74.938869
LeftForeArm -0.991622 -0.000000 15.345652
LeftHand -11.278998 -0.000000 -6.141120
LeftHandThumb1 -26.253704 0.000000 33.147579
RightShoulder -18.520750 42.266795 -59.843095
RightArm 96.725973 40.221798 125.123921
RightForeArm 45.311509 0.000000 111.521647
RightHand 1.894832 -0.000000 20.677096
RightHandThumb1 -24.326973 -0.000000 -32.862282
LeftUpLeg -2.347827 -12.072604 -1.337968
LeftLeg -0.088876 -0.000000 0.000000
LeftFoot -11.794521 9.826620 -23.080250
LeftToeBase 8.333967 -0.000000 -0.000000
RightUpLeg 5.851634 -14.731841 -4.296422
RightLeg -4.271643 -0.000000 0.000000
RightFoot -17.874468 -21.376488 12.881976
RightToeBase 5.242941 -0.000000 -0.000000
645
root -1.143739 31.949994 -5.839952 7.455999 26.485140 5.809614
Spine -8.474742 -2.723512 -2.865342
Head 11.503992 -7.811017 -4.637695
LeftShoulder -11.836732 14.661828 6.606705
LeftArm 22.326961 39.384114 -74.961125
LeftForeArm -1.025143 -0.000000 15.294642
LeftHand -11.286801 -0.000000 -6.178259
LeftHandThumb1 -26.253704 0.000000 33.147579
RightShoulder -18.645781 42.279725 -59.966804
RightArm 96.310337 40.331301 124.317968
RightForeArm 45.118397 -0.000000 109.074104
RightHand 1.593162 -0.000000 20.741260
RightHandThumb1 -24.326973 -0.000000 -32.862282
LeftUpLeg -2.315095 -12.070054 -1.358861
LeftLeg -0.092353 -0.000000 0.000000
LeftFoot -11.796938 9.840061 -23.054775
LeftToeBase 8.262141 -0.000000 -0.000000
RightUpLeg 5.874950 -14.822534 -4.319822
RightLeg -4.257971 -0.000000 0.000000
RightFoot -17.859675 -21.328380 12.824647
RightToeBase 5.262952 -0.000000 -0.000000
646
root -1.139921 31.949566 -5.838156 7.439731 26.463565 5.822921
Spine -8.453338 -2.703557 -2.857285
Head 11.433373 -7.556350 -4.775450
LeftShoulder -11.881012 14.563007 6.606077
LeftArm 22.282104 39.459861 -74.984326
LeftForeArm -1.045203 -0.000000 15.225247
LeftHand -11.268076 -0.000000 -6.224305
LeftHandThumb1 -26.253704 0.000000 33.147579
RightShoulder -18.788687 42.290067 -60.085811
RightArm 95.856592 40.413115 123.437696
RightForeArm 45.099154 0.000000 106.589765
RightHand 1.384231 -0.000000 20.594575
RightHandThumb1 -24.326973 -0.000000 -32.862282
LeftUpLeg -2.285564 -12.083798 -1.383198
LeftLeg -0.086070 -0.000000 0.000000
LeftFoot -11.817861 9.851936 -23.079014
LeftToeBase 8.285485 -0.000000 -0.000000
RightUpLeg 5.909211 -14.814753 -4.347816
RightLeg -4.276571 -0.000000 0.000000
RightFoot -17.853188 -21.314200 12.805950
RightToeBase 5.264609 -0.000000 -0.000000
647
root -1.135651 31.949629 -5.834897 7.411449 26.427073 5.829802
Spine -8.429112 -2.668895 -2.862731
Head 11.330658 -7.411035 -4.921390
LeftShoulder -11.914732 14.501448 6.617364
LeftArm 22.239630 39.464360 -75.038155
LeftForeArm -1.005133 -0.000000 15.167878
LeftHand -11.278180 -0.000000 -6.265196
LeftHandThumb1 -26.253704 0.000000 33.147579
RightShoulder -18.913387 42.252798 -60.141877
RightArm 95.401876 40.437999 122.462558
RightForeArm 45.182497 -0.000000 104.047261
RightHand 1.153022 -0.000000 20.322996
RightHandThumb1 -24.326973 -0.000000 -32.862282
LeftUpLeg -2.241618 -12.054195 -1.407092
LeftLeg -0.087362 -0.000000 0.000000
LeftFoot -11.824820 9.867855 -23.074132
LeftToeBase 8.267214 -0.000000 -0.000000
RightUpLeg 5.953090 -14.783239 -4.372457
RightLeg -4.296647 -0.000000 0.000000
RightFoot -17.860685 -21.294134 12.854441
RightToeBase 5.252435 -0.000000 -0.000000
